<mxfile host="app.diagrams.net" modified="2023-11-30T10:28:42.450Z" agent="Mozilla/5.0 (Windows NT 10.0; Win64; x64) AppleWebKit/537.36 (KHTML, like Gecko) Chrome/119.0.0.0 Safari/537.36" etag="WRJ4dqSmPg6txfI9hR_e" version="22.1.4" type="github">
  <diagram id="C5RBs43oDa-KdzZeNtuy" name="Page-1">
    <mxGraphModel dx="1195" dy="622" grid="1" gridSize="10" guides="1" tooltips="1" connect="1" arrows="1" fold="1" page="1" pageScale="1" pageWidth="827" pageHeight="1169" math="0" shadow="0">
      <root>
        <mxCell id="WIyWlLk6GJQsqaUBKTNV-0" />
        <mxCell id="WIyWlLk6GJQsqaUBKTNV-1" parent="WIyWlLk6GJQsqaUBKTNV-0" />
        <mxCell id="CR6IL81RlcoV7Cm8-zXN-135" value="" style="rounded=0;whiteSpace=wrap;html=1;" vertex="1" parent="WIyWlLk6GJQsqaUBKTNV-1">
          <mxGeometry x="110" y="1000" width="760" height="540" as="geometry" />
        </mxCell>
        <mxCell id="CR6IL81RlcoV7Cm8-zXN-103" value="" style="whiteSpace=wrap;html=1;aspect=fixed;" vertex="1" parent="WIyWlLk6GJQsqaUBKTNV-1">
          <mxGeometry x="120" y="40" width="920" height="920" as="geometry" />
        </mxCell>
        <mxCell id="CR6IL81RlcoV7Cm8-zXN-19" value="BackupFile" style="swimlane;fontStyle=2;align=center;verticalAlign=top;childLayout=stackLayout;horizontal=1;startSize=26;horizontalStack=0;resizeParent=1;resizeLast=0;collapsible=1;marginBottom=0;rounded=0;shadow=0;strokeWidth=1;" vertex="1" parent="WIyWlLk6GJQsqaUBKTNV-1">
          <mxGeometry x="160" y="110" width="160" height="320" as="geometry">
            <mxRectangle x="230" y="140" width="160" height="26" as="alternateBounds" />
          </mxGeometry>
        </mxCell>
        <mxCell id="CR6IL81RlcoV7Cm8-zXN-20" value="sysFileId(文件业务id)" style="text;align=left;verticalAlign=top;spacingLeft=4;spacingRight=4;overflow=hidden;rotatable=0;points=[[0,0.5],[1,0.5]];portConstraint=eastwest;" vertex="1" parent="CR6IL81RlcoV7Cm8-zXN-19">
          <mxGeometry y="26" width="160" height="26" as="geometry" />
        </mxCell>
        <mxCell id="CR6IL81RlcoV7Cm8-zXN-97" value="sysTaskId(任务Id)" style="text;strokeColor=none;fillColor=none;align=left;verticalAlign=top;spacingLeft=4;spacingRight=4;overflow=hidden;rotatable=0;points=[[0,0.5],[1,0.5]];portConstraint=eastwest;whiteSpace=wrap;html=1;" vertex="1" parent="CR6IL81RlcoV7Cm8-zXN-19">
          <mxGeometry y="52" width="160" height="26" as="geometry" />
        </mxCell>
        <mxCell id="CR6IL81RlcoV7Cm8-zXN-25" value="fileName（文件名称）" style="text;strokeColor=none;fillColor=none;align=left;verticalAlign=top;spacingLeft=4;spacingRight=4;overflow=hidden;rotatable=0;points=[[0,0.5],[1,0.5]];portConstraint=eastwest;whiteSpace=wrap;html=1;" vertex="1" parent="CR6IL81RlcoV7Cm8-zXN-19">
          <mxGeometry y="78" width="160" height="26" as="geometry" />
        </mxCell>
        <mxCell id="CR6IL81RlcoV7Cm8-zXN-27" value="fileSuffix（文件后缀）" style="text;strokeColor=none;fillColor=none;align=left;verticalAlign=top;spacingLeft=4;spacingRight=4;overflow=hidden;rotatable=0;points=[[0,0.5],[1,0.5]];portConstraint=eastwest;whiteSpace=wrap;html=1;" vertex="1" parent="CR6IL81RlcoV7Cm8-zXN-19">
          <mxGeometry y="104" width="160" height="26" as="geometry" />
        </mxCell>
        <mxCell id="CR6IL81RlcoV7Cm8-zXN-30" value="FileSource(备份工具、归档工具、数据管家)" style="text;strokeColor=none;fillColor=none;align=left;verticalAlign=top;spacingLeft=4;spacingRight=4;overflow=hidden;rotatable=0;points=[[0,0.5],[1,0.5]];portConstraint=eastwest;whiteSpace=wrap;html=1;" vertex="1" parent="CR6IL81RlcoV7Cm8-zXN-19">
          <mxGeometry y="130" width="160" height="46" as="geometry" />
        </mxCell>
        <mxCell id="CR6IL81RlcoV7Cm8-zXN-26" value="SendUI（是否通知UI）" style="text;strokeColor=none;fillColor=none;align=left;verticalAlign=top;spacingLeft=4;spacingRight=4;overflow=hidden;rotatable=0;points=[[0,0.5],[1,0.5]];portConstraint=eastwest;whiteSpace=wrap;html=1;" vertex="1" parent="CR6IL81RlcoV7Cm8-zXN-19">
          <mxGeometry y="176" width="160" height="26" as="geometry" />
        </mxCell>
        <mxCell id="CR6IL81RlcoV7Cm8-zXN-28" value="threadRate（线程倍率）" style="text;strokeColor=none;fillColor=none;align=left;verticalAlign=top;spacingLeft=4;spacingRight=4;overflow=hidden;rotatable=0;points=[[0,0.5],[1,0.5]];portConstraint=eastwest;whiteSpace=wrap;html=1;" vertex="1" parent="CR6IL81RlcoV7Cm8-zXN-19">
          <mxGeometry y="202" width="160" height="26" as="geometry" />
        </mxCell>
        <mxCell id="CR6IL81RlcoV7Cm8-zXN-22" value="Email Address" style="text;align=left;verticalAlign=top;spacingLeft=4;spacingRight=4;overflow=hidden;rotatable=0;points=[[0,0.5],[1,0.5]];portConstraint=eastwest;rounded=0;shadow=0;html=0;" vertex="1" parent="CR6IL81RlcoV7Cm8-zXN-19">
          <mxGeometry y="228" width="160" height="26" as="geometry" />
        </mxCell>
        <mxCell id="CR6IL81RlcoV7Cm8-zXN-23" value="" style="line;html=1;strokeWidth=1;align=left;verticalAlign=middle;spacingTop=-1;spacingLeft=3;spacingRight=3;rotatable=0;labelPosition=right;points=[];portConstraint=eastwest;" vertex="1" parent="CR6IL81RlcoV7Cm8-zXN-19">
          <mxGeometry y="254" width="160" height="8" as="geometry" />
        </mxCell>
        <mxCell id="CR6IL81RlcoV7Cm8-zXN-24" value="获取备份文件：GetBackup&#xa;FileDetailsForBackup()" style="text;align=left;verticalAlign=top;spacingLeft=4;spacingRight=4;overflow=hidden;rotatable=0;points=[[0,0.5],[1,0.5]];portConstraint=eastwest;" vertex="1" parent="CR6IL81RlcoV7Cm8-zXN-19">
          <mxGeometry y="262" width="160" height="58" as="geometry" />
        </mxCell>
        <mxCell id="CR6IL81RlcoV7Cm8-zXN-31" value="FileServerInfo" style="swimlane;fontStyle=2;align=center;verticalAlign=top;childLayout=stackLayout;horizontal=1;startSize=26;horizontalStack=0;resizeParent=1;resizeLast=0;collapsible=1;marginBottom=0;rounded=0;shadow=0;strokeWidth=1;" vertex="1" parent="WIyWlLk6GJQsqaUBKTNV-1">
          <mxGeometry x="450" y="110" width="226" height="344" as="geometry">
            <mxRectangle x="230" y="140" width="160" height="26" as="alternateBounds" />
          </mxGeometry>
        </mxCell>
        <mxCell id="CR6IL81RlcoV7Cm8-zXN-32" value="classified（文件是否涉密）" style="text;align=left;verticalAlign=top;spacingLeft=4;spacingRight=4;overflow=hidden;rotatable=0;points=[[0,0.5],[1,0.5]];portConstraint=eastwest;" vertex="1" parent="CR6IL81RlcoV7Cm8-zXN-31">
          <mxGeometry y="26" width="226" height="26" as="geometry" />
        </mxCell>
        <mxCell id="CR6IL81RlcoV7Cm8-zXN-33" value="fastUpload（是否已上传）" style="text;strokeColor=none;fillColor=none;align=left;verticalAlign=top;spacingLeft=4;spacingRight=4;overflow=hidden;rotatable=0;points=[[0,0.5],[1,0.5]];portConstraint=eastwest;whiteSpace=wrap;html=1;" vertex="1" parent="CR6IL81RlcoV7Cm8-zXN-31">
          <mxGeometry y="52" width="226" height="26" as="geometry" />
        </mxCell>
        <mxCell id="CR6IL81RlcoV7Cm8-zXN-34" value="uploading（是否正在上传中&lt;br&gt;）" style="text;strokeColor=none;fillColor=none;align=left;verticalAlign=top;spacingLeft=4;spacingRight=4;overflow=hidden;rotatable=0;points=[[0,0.5],[1,0.5]];portConstraint=eastwest;whiteSpace=wrap;html=1;" vertex="1" parent="CR6IL81RlcoV7Cm8-zXN-31">
          <mxGeometry y="78" width="226" height="42" as="geometry" />
        </mxCell>
        <mxCell id="CR6IL81RlcoV7Cm8-zXN-35" value="FileSource(备份工具、归档工具、数据管家)" style="text;strokeColor=none;fillColor=none;align=left;verticalAlign=top;spacingLeft=4;spacingRight=4;overflow=hidden;rotatable=0;points=[[0,0.5],[1,0.5]];portConstraint=eastwest;whiteSpace=wrap;html=1;" vertex="1" parent="CR6IL81RlcoV7Cm8-zXN-31">
          <mxGeometry y="120" width="226" height="46" as="geometry" />
        </mxCell>
        <mxCell id="CR6IL81RlcoV7Cm8-zXN-36" value="fileId（文件Id）" style="text;strokeColor=none;fillColor=none;align=left;verticalAlign=top;spacingLeft=4;spacingRight=4;overflow=hidden;rotatable=0;points=[[0,0.5],[1,0.5]];portConstraint=eastwest;whiteSpace=wrap;html=1;" vertex="1" parent="CR6IL81RlcoV7Cm8-zXN-31">
          <mxGeometry y="166" width="226" height="26" as="geometry" />
        </mxCell>
        <mxCell id="CR6IL81RlcoV7Cm8-zXN-37" value="uploadId（Minio uploadId）" style="text;strokeColor=none;fillColor=none;align=left;verticalAlign=top;spacingLeft=4;spacingRight=4;overflow=hidden;rotatable=0;points=[[0,0.5],[1,0.5]];portConstraint=eastwest;whiteSpace=wrap;html=1;" vertex="1" parent="CR6IL81RlcoV7Cm8-zXN-31">
          <mxGeometry y="192" width="226" height="26" as="geometry" />
        </mxCell>
        <mxCell id="CR6IL81RlcoV7Cm8-zXN-38" value="fileHash（文件Hash）" style="text;strokeColor=none;fillColor=none;align=left;verticalAlign=top;spacingLeft=4;spacingRight=4;overflow=hidden;rotatable=0;points=[[0,0.5],[1,0.5]];portConstraint=eastwest;whiteSpace=wrap;html=1;" vertex="1" parent="CR6IL81RlcoV7Cm8-zXN-31">
          <mxGeometry y="218" width="226" height="26" as="geometry" />
        </mxCell>
        <mxCell id="CR6IL81RlcoV7Cm8-zXN-39" value="objectName（Minio objectName）" style="text;align=left;verticalAlign=top;spacingLeft=4;spacingRight=4;overflow=hidden;rotatable=0;points=[[0,0.5],[1,0.5]];portConstraint=eastwest;rounded=0;shadow=0;html=0;" vertex="1" parent="CR6IL81RlcoV7Cm8-zXN-31">
          <mxGeometry y="244" width="226" height="26" as="geometry" />
        </mxCell>
        <mxCell id="CR6IL81RlcoV7Cm8-zXN-54" value="List&amp;lt;UploadCreateItem&amp;gt;&amp;nbsp;chunks (切片信息)" style="text;strokeColor=none;fillColor=none;align=left;verticalAlign=top;spacingLeft=4;spacingRight=4;overflow=hidden;rotatable=0;points=[[0,0.5],[1,0.5]];portConstraint=eastwest;whiteSpace=wrap;html=1;" vertex="1" parent="CR6IL81RlcoV7Cm8-zXN-31">
          <mxGeometry y="270" width="226" height="40" as="geometry" />
        </mxCell>
        <mxCell id="CR6IL81RlcoV7Cm8-zXN-40" value="" style="line;html=1;strokeWidth=1;align=left;verticalAlign=middle;spacingTop=-1;spacingLeft=3;spacingRight=3;rotatable=0;labelPosition=right;points=[];portConstraint=eastwest;" vertex="1" parent="CR6IL81RlcoV7Cm8-zXN-31">
          <mxGeometry y="310" width="226" height="8" as="geometry" />
        </mxCell>
        <mxCell id="CR6IL81RlcoV7Cm8-zXN-41" value="获取文件上传信息：GetFileUploadInfo()" style="text;align=left;verticalAlign=top;spacingLeft=4;spacingRight=4;overflow=hidden;rotatable=0;points=[[0,0.5],[1,0.5]];portConstraint=eastwest;" vertex="1" parent="CR6IL81RlcoV7Cm8-zXN-31">
          <mxGeometry y="318" width="226" height="26" as="geometry" />
        </mxCell>
        <mxCell id="CR6IL81RlcoV7Cm8-zXN-43" value="UploadCreateItem" style="swimlane;fontStyle=2;align=center;verticalAlign=top;childLayout=stackLayout;horizontal=1;startSize=26;horizontalStack=0;resizeParent=1;resizeLast=0;collapsible=1;marginBottom=0;rounded=0;shadow=0;strokeWidth=1;" vertex="1" parent="WIyWlLk6GJQsqaUBKTNV-1">
          <mxGeometry x="776" y="152" width="160" height="170" as="geometry">
            <mxRectangle x="230" y="140" width="160" height="26" as="alternateBounds" />
          </mxGeometry>
        </mxCell>
        <mxCell id="CR6IL81RlcoV7Cm8-zXN-44" value="partNumber（分片索引）" style="text;align=left;verticalAlign=top;spacingLeft=4;spacingRight=4;overflow=hidden;rotatable=0;points=[[0,0.5],[1,0.5]];portConstraint=eastwest;" vertex="1" parent="CR6IL81RlcoV7Cm8-zXN-43">
          <mxGeometry y="26" width="160" height="26" as="geometry" />
        </mxCell>
        <mxCell id="CR6IL81RlcoV7Cm8-zXN-45" value="uploadUrl" style="text;strokeColor=none;fillColor=none;align=left;verticalAlign=top;spacingLeft=4;spacingRight=4;overflow=hidden;rotatable=0;points=[[0,0.5],[1,0.5]];portConstraint=eastwest;whiteSpace=wrap;html=1;" vertex="1" parent="CR6IL81RlcoV7Cm8-zXN-43">
          <mxGeometry y="52" width="160" height="26" as="geometry" />
        </mxCell>
        <mxCell id="CR6IL81RlcoV7Cm8-zXN-46" value="uploadSuccessed" style="text;strokeColor=none;fillColor=none;align=left;verticalAlign=top;spacingLeft=4;spacingRight=4;overflow=hidden;rotatable=0;points=[[0,0.5],[1,0.5]];portConstraint=eastwest;whiteSpace=wrap;html=1;" vertex="1" parent="CR6IL81RlcoV7Cm8-zXN-43">
          <mxGeometry y="78" width="160" height="32" as="geometry" />
        </mxCell>
        <mxCell id="CR6IL81RlcoV7Cm8-zXN-48" value="Md5NotMatch" style="text;strokeColor=none;fillColor=none;align=left;verticalAlign=top;spacingLeft=4;spacingRight=4;overflow=hidden;rotatable=0;points=[[0,0.5],[1,0.5]];portConstraint=eastwest;whiteSpace=wrap;html=1;" vertex="1" parent="CR6IL81RlcoV7Cm8-zXN-43">
          <mxGeometry y="110" width="160" height="26" as="geometry" />
        </mxCell>
        <mxCell id="CR6IL81RlcoV7Cm8-zXN-49" value="MinioMd5（Minio etag）" style="text;strokeColor=none;fillColor=none;align=left;verticalAlign=top;spacingLeft=4;spacingRight=4;overflow=hidden;rotatable=0;points=[[0,0.5],[1,0.5]];portConstraint=eastwest;whiteSpace=wrap;html=1;" vertex="1" parent="CR6IL81RlcoV7Cm8-zXN-43">
          <mxGeometry y="136" width="160" height="26" as="geometry" />
        </mxCell>
        <mxCell id="CR6IL81RlcoV7Cm8-zXN-55" style="edgeStyle=orthogonalEdgeStyle;rounded=0;orthogonalLoop=1;jettySize=auto;html=1;exitX=1;exitY=0.5;exitDx=0;exitDy=0;entryX=0.019;entryY=0.719;entryDx=0;entryDy=0;entryPerimeter=0;" edge="1" parent="WIyWlLk6GJQsqaUBKTNV-1" source="CR6IL81RlcoV7Cm8-zXN-35" target="CR6IL81RlcoV7Cm8-zXN-46">
          <mxGeometry relative="1" as="geometry" />
        </mxCell>
        <mxCell id="CR6IL81RlcoV7Cm8-zXN-56" value="1::N" style="edgeLabel;html=1;align=center;verticalAlign=middle;resizable=0;points=[];" vertex="1" connectable="0" parent="CR6IL81RlcoV7Cm8-zXN-55">
          <mxGeometry x="-0.1654" y="1" relative="1" as="geometry">
            <mxPoint as="offset" />
          </mxGeometry>
        </mxCell>
        <mxCell id="CR6IL81RlcoV7Cm8-zXN-57" value="CompleteMultipart" style="swimlane;fontStyle=2;align=center;verticalAlign=top;childLayout=stackLayout;horizontal=1;startSize=26;horizontalStack=0;resizeParent=1;resizeLast=0;collapsible=1;marginBottom=0;rounded=0;shadow=0;strokeWidth=1;" vertex="1" parent="WIyWlLk6GJQsqaUBKTNV-1">
          <mxGeometry x="130" y="480" width="246" height="354" as="geometry">
            <mxRectangle x="230" y="140" width="160" height="26" as="alternateBounds" />
          </mxGeometry>
        </mxCell>
        <mxCell id="CR6IL81RlcoV7Cm8-zXN-58" value="chunkSize（文件块数）" style="text;align=left;verticalAlign=top;spacingLeft=4;spacingRight=4;overflow=hidden;rotatable=0;points=[[0,0.5],[1,0.5]];portConstraint=eastwest;" vertex="1" parent="CR6IL81RlcoV7Cm8-zXN-57">
          <mxGeometry y="26" width="246" height="26" as="geometry" />
        </mxCell>
        <mxCell id="CR6IL81RlcoV7Cm8-zXN-59" value="uploadId" style="text;strokeColor=none;fillColor=none;align=left;verticalAlign=top;spacingLeft=4;spacingRight=4;overflow=hidden;rotatable=0;points=[[0,0.5],[1,0.5]];portConstraint=eastwest;whiteSpace=wrap;html=1;" vertex="1" parent="CR6IL81RlcoV7Cm8-zXN-57">
          <mxGeometry y="52" width="246" height="26" as="geometry" />
        </mxCell>
        <mxCell id="CR6IL81RlcoV7Cm8-zXN-60" value="objectName" style="text;strokeColor=none;fillColor=none;align=left;verticalAlign=top;spacingLeft=4;spacingRight=4;overflow=hidden;rotatable=0;points=[[0,0.5],[1,0.5]];portConstraint=eastwest;whiteSpace=wrap;html=1;" vertex="1" parent="CR6IL81RlcoV7Cm8-zXN-57">
          <mxGeometry y="78" width="246" height="32" as="geometry" />
        </mxCell>
        <mxCell id="CR6IL81RlcoV7Cm8-zXN-61" value="fileHash（文件Hash）" style="text;strokeColor=none;fillColor=none;align=left;verticalAlign=top;spacingLeft=4;spacingRight=4;overflow=hidden;rotatable=0;points=[[0,0.5],[1,0.5]];portConstraint=eastwest;whiteSpace=wrap;html=1;" vertex="1" parent="CR6IL81RlcoV7Cm8-zXN-57">
          <mxGeometry y="110" width="246" height="30" as="geometry" />
        </mxCell>
        <mxCell id="CR6IL81RlcoV7Cm8-zXN-62" value="fileId（文件Id）" style="text;strokeColor=none;fillColor=none;align=left;verticalAlign=top;spacingLeft=4;spacingRight=4;overflow=hidden;rotatable=0;points=[[0,0.5],[1,0.5]];portConstraint=eastwest;whiteSpace=wrap;html=1;" vertex="1" parent="CR6IL81RlcoV7Cm8-zXN-57">
          <mxGeometry y="140" width="246" height="26" as="geometry" />
        </mxCell>
        <mxCell id="CR6IL81RlcoV7Cm8-zXN-63" value="uploadId（Minio uploadId）" style="text;strokeColor=none;fillColor=none;align=left;verticalAlign=top;spacingLeft=4;spacingRight=4;overflow=hidden;rotatable=0;points=[[0,0.5],[1,0.5]];portConstraint=eastwest;whiteSpace=wrap;html=1;" vertex="1" parent="CR6IL81RlcoV7Cm8-zXN-57">
          <mxGeometry y="166" width="246" height="26" as="geometry" />
        </mxCell>
        <mxCell id="CR6IL81RlcoV7Cm8-zXN-64" value="fileHash（文件Hash）" style="text;strokeColor=none;fillColor=none;align=left;verticalAlign=top;spacingLeft=4;spacingRight=4;overflow=hidden;rotatable=0;points=[[0,0.5],[1,0.5]];portConstraint=eastwest;whiteSpace=wrap;html=1;" vertex="1" parent="CR6IL81RlcoV7Cm8-zXN-57">
          <mxGeometry y="192" width="246" height="26" as="geometry" />
        </mxCell>
        <mxCell id="CR6IL81RlcoV7Cm8-zXN-65" value="objectName（Minio objectName）" style="text;align=left;verticalAlign=top;spacingLeft=4;spacingRight=4;overflow=hidden;rotatable=0;points=[[0,0.5],[1,0.5]];portConstraint=eastwest;rounded=0;shadow=0;html=0;" vertex="1" parent="CR6IL81RlcoV7Cm8-zXN-57">
          <mxGeometry y="218" width="246" height="26" as="geometry" />
        </mxCell>
        <mxCell id="CR6IL81RlcoV7Cm8-zXN-66" value="List&amp;lt;UploadCreateItem&amp;gt;&amp;nbsp;chunks (切片信息)" style="text;strokeColor=none;fillColor=none;align=left;verticalAlign=top;spacingLeft=4;spacingRight=4;overflow=hidden;rotatable=0;points=[[0,0.5],[1,0.5]];portConstraint=eastwest;whiteSpace=wrap;html=1;" vertex="1" parent="CR6IL81RlcoV7Cm8-zXN-57">
          <mxGeometry y="244" width="246" height="40" as="geometry" />
        </mxCell>
        <mxCell id="CR6IL81RlcoV7Cm8-zXN-69" value="FileSource(备份工具、归档工具、数据管家)" style="text;strokeColor=none;fillColor=none;align=left;verticalAlign=top;spacingLeft=4;spacingRight=4;overflow=hidden;rotatable=0;points=[[0,0.5],[1,0.5]];portConstraint=eastwest;whiteSpace=wrap;html=1;" vertex="1" parent="CR6IL81RlcoV7Cm8-zXN-57">
          <mxGeometry y="284" width="246" height="36" as="geometry" />
        </mxCell>
        <mxCell id="CR6IL81RlcoV7Cm8-zXN-67" value="" style="line;html=1;strokeWidth=1;align=left;verticalAlign=middle;spacingTop=-1;spacingLeft=3;spacingRight=3;rotatable=0;labelPosition=right;points=[];portConstraint=eastwest;" vertex="1" parent="CR6IL81RlcoV7Cm8-zXN-57">
          <mxGeometry y="320" width="246" height="8" as="geometry" />
        </mxCell>
        <mxCell id="CR6IL81RlcoV7Cm8-zXN-68" value="文件合并：CompleteMultipartUpload()" style="text;align=left;verticalAlign=top;spacingLeft=4;spacingRight=4;overflow=hidden;rotatable=0;points=[[0,0.5],[1,0.5]];portConstraint=eastwest;" vertex="1" parent="CR6IL81RlcoV7Cm8-zXN-57">
          <mxGeometry y="328" width="246" height="26" as="geometry" />
        </mxCell>
        <mxCell id="CR6IL81RlcoV7Cm8-zXN-85" value="UploadFileInfo" style="swimlane;fontStyle=2;align=center;verticalAlign=top;childLayout=stackLayout;horizontal=1;startSize=26;horizontalStack=0;resizeParent=1;resizeLast=0;collapsible=1;marginBottom=0;rounded=0;shadow=0;strokeWidth=1;" vertex="1" parent="WIyWlLk6GJQsqaUBKTNV-1">
          <mxGeometry x="450" y="480" width="207" height="476" as="geometry">
            <mxRectangle x="230" y="140" width="160" height="26" as="alternateBounds" />
          </mxGeometry>
        </mxCell>
        <mxCell id="CR6IL81RlcoV7Cm8-zXN-96" value="sysFileId(文件业务id)" style="text;strokeColor=none;fillColor=none;align=left;verticalAlign=top;spacingLeft=4;spacingRight=4;overflow=hidden;rotatable=0;points=[[0,0.5],[1,0.5]];portConstraint=eastwest;whiteSpace=wrap;html=1;" vertex="1" parent="CR6IL81RlcoV7Cm8-zXN-85">
          <mxGeometry y="26" width="207" height="26" as="geometry" />
        </mxCell>
        <mxCell id="CR6IL81RlcoV7Cm8-zXN-86" value="fileId(文件Id)" style="text;align=left;verticalAlign=top;spacingLeft=4;spacingRight=4;overflow=hidden;rotatable=0;points=[[0,0.5],[1,0.5]];portConstraint=eastwest;" vertex="1" parent="CR6IL81RlcoV7Cm8-zXN-85">
          <mxGeometry y="52" width="207" height="26" as="geometry" />
        </mxCell>
        <mxCell id="CR6IL81RlcoV7Cm8-zXN-87" value="fileName（文件名称）" style="text;strokeColor=none;fillColor=none;align=left;verticalAlign=top;spacingLeft=4;spacingRight=4;overflow=hidden;rotatable=0;points=[[0,0.5],[1,0.5]];portConstraint=eastwest;whiteSpace=wrap;html=1;" vertex="1" parent="CR6IL81RlcoV7Cm8-zXN-85">
          <mxGeometry y="78" width="207" height="26" as="geometry" />
        </mxCell>
        <mxCell id="CR6IL81RlcoV7Cm8-zXN-88" value="fileSuffix（文件后缀）" style="text;strokeColor=none;fillColor=none;align=left;verticalAlign=top;spacingLeft=4;spacingRight=4;overflow=hidden;rotatable=0;points=[[0,0.5],[1,0.5]];portConstraint=eastwest;whiteSpace=wrap;html=1;" vertex="1" parent="CR6IL81RlcoV7Cm8-zXN-85">
          <mxGeometry y="104" width="207" height="26" as="geometry" />
        </mxCell>
        <mxCell id="CR6IL81RlcoV7Cm8-zXN-89" value="FileSource(备份工具、归档工具、数据管家)" style="text;strokeColor=none;fillColor=none;align=left;verticalAlign=top;spacingLeft=4;spacingRight=4;overflow=hidden;rotatable=0;points=[[0,0.5],[1,0.5]];portConstraint=eastwest;whiteSpace=wrap;html=1;" vertex="1" parent="CR6IL81RlcoV7Cm8-zXN-85">
          <mxGeometry y="130" width="207" height="46" as="geometry" />
        </mxCell>
        <mxCell id="CR6IL81RlcoV7Cm8-zXN-90" value="classified(文件是否涉密)" style="text;strokeColor=none;fillColor=none;align=left;verticalAlign=top;spacingLeft=4;spacingRight=4;overflow=hidden;rotatable=0;points=[[0,0.5],[1,0.5]];portConstraint=eastwest;whiteSpace=wrap;html=1;" vertex="1" parent="CR6IL81RlcoV7Cm8-zXN-85">
          <mxGeometry y="176" width="207" height="26" as="geometry" />
        </mxCell>
        <mxCell id="CR6IL81RlcoV7Cm8-zXN-91" value="remark（备注）" style="text;strokeColor=none;fillColor=none;align=left;verticalAlign=top;spacingLeft=4;spacingRight=4;overflow=hidden;rotatable=0;points=[[0,0.5],[1,0.5]];portConstraint=eastwest;whiteSpace=wrap;html=1;" vertex="1" parent="CR6IL81RlcoV7Cm8-zXN-85">
          <mxGeometry y="202" width="207" height="26" as="geometry" />
        </mxCell>
        <mxCell id="CR6IL81RlcoV7Cm8-zXN-92" value="uploadFailMsg（失败原因）" style="text;strokeColor=none;fillColor=none;align=left;verticalAlign=top;spacingLeft=4;spacingRight=4;overflow=hidden;rotatable=0;points=[[0,0.5],[1,0.5]];portConstraint=eastwest;whiteSpace=wrap;html=1;" vertex="1" parent="CR6IL81RlcoV7Cm8-zXN-85">
          <mxGeometry y="228" width="207" height="26" as="geometry" />
        </mxCell>
        <mxCell id="CR6IL81RlcoV7Cm8-zXN-93" value="uploadNum" style="text;align=left;verticalAlign=top;spacingLeft=4;spacingRight=4;overflow=hidden;rotatable=0;points=[[0,0.5],[1,0.5]];portConstraint=eastwest;rounded=0;shadow=0;html=0;" vertex="1" parent="CR6IL81RlcoV7Cm8-zXN-85">
          <mxGeometry y="254" width="207" height="26" as="geometry" />
        </mxCell>
        <mxCell id="CR6IL81RlcoV7Cm8-zXN-98" value="ClientId（客户端Id）" style="text;strokeColor=none;fillColor=none;align=left;verticalAlign=top;spacingLeft=4;spacingRight=4;overflow=hidden;rotatable=0;points=[[0,0.5],[1,0.5]];portConstraint=eastwest;whiteSpace=wrap;html=1;" vertex="1" parent="CR6IL81RlcoV7Cm8-zXN-85">
          <mxGeometry y="280" width="207" height="26" as="geometry" />
        </mxCell>
        <mxCell id="CR6IL81RlcoV7Cm8-zXN-99" value="fileIsClassified（文件是否涉密）" style="text;strokeColor=none;fillColor=none;align=left;verticalAlign=top;spacingLeft=4;spacingRight=4;overflow=hidden;rotatable=0;points=[[0,0.5],[1,0.5]];portConstraint=eastwest;whiteSpace=wrap;html=1;" vertex="1" parent="CR6IL81RlcoV7Cm8-zXN-85">
          <mxGeometry y="306" width="207" height="26" as="geometry" />
        </mxCell>
        <mxCell id="CR6IL81RlcoV7Cm8-zXN-100" value="fileStatus（文件上传状态）" style="text;strokeColor=none;fillColor=none;align=left;verticalAlign=top;spacingLeft=4;spacingRight=4;overflow=hidden;rotatable=0;points=[[0,0.5],[1,0.5]];portConstraint=eastwest;whiteSpace=wrap;html=1;" vertex="1" parent="CR6IL81RlcoV7Cm8-zXN-85">
          <mxGeometry y="332" width="207" height="26" as="geometry" />
        </mxCell>
        <mxCell id="CR6IL81RlcoV7Cm8-zXN-101" value="fileCreateTime" style="text;strokeColor=none;fillColor=none;align=left;verticalAlign=top;spacingLeft=4;spacingRight=4;overflow=hidden;rotatable=0;points=[[0,0.5],[1,0.5]];portConstraint=eastwest;whiteSpace=wrap;html=1;" vertex="1" parent="CR6IL81RlcoV7Cm8-zXN-85">
          <mxGeometry y="358" width="207" height="26" as="geometry" />
        </mxCell>
        <mxCell id="CR6IL81RlcoV7Cm8-zXN-102" value="fileLastWriteTime" style="text;strokeColor=none;fillColor=none;align=left;verticalAlign=top;spacingLeft=4;spacingRight=4;overflow=hidden;rotatable=0;points=[[0,0.5],[1,0.5]];portConstraint=eastwest;whiteSpace=wrap;html=1;" vertex="1" parent="CR6IL81RlcoV7Cm8-zXN-85">
          <mxGeometry y="384" width="207" height="26" as="geometry" />
        </mxCell>
        <mxCell id="CR6IL81RlcoV7Cm8-zXN-94" value="" style="line;html=1;strokeWidth=1;align=left;verticalAlign=middle;spacingTop=-1;spacingLeft=3;spacingRight=3;rotatable=0;labelPosition=right;points=[];portConstraint=eastwest;" vertex="1" parent="CR6IL81RlcoV7Cm8-zXN-85">
          <mxGeometry y="410" width="207" height="8" as="geometry" />
        </mxCell>
        <mxCell id="CR6IL81RlcoV7Cm8-zXN-95" value="保存文件上传信息：updateBackup&#xa;FileDetail" style="text;align=left;verticalAlign=top;spacingLeft=4;spacingRight=4;overflow=hidden;rotatable=0;points=[[0,0.5],[1,0.5]];portConstraint=eastwest;" vertex="1" parent="CR6IL81RlcoV7Cm8-zXN-85">
          <mxGeometry y="418" width="207" height="58" as="geometry" />
        </mxCell>
        <mxCell id="CR6IL81RlcoV7Cm8-zXN-104" value="文件上传" style="text;html=1;strokeColor=none;fillColor=none;align=center;verticalAlign=middle;whiteSpace=wrap;rounded=0;" vertex="1" parent="WIyWlLk6GJQsqaUBKTNV-1">
          <mxGeometry x="523.5" y="55" width="60" height="30" as="geometry" />
        </mxCell>
        <mxCell id="CR6IL81RlcoV7Cm8-zXN-105" value="DownloadFile" style="swimlane;fontStyle=2;align=center;verticalAlign=top;childLayout=stackLayout;horizontal=1;startSize=26;horizontalStack=0;resizeParent=1;resizeLast=0;collapsible=1;marginBottom=0;rounded=0;shadow=0;strokeWidth=1;" vertex="1" parent="WIyWlLk6GJQsqaUBKTNV-1">
          <mxGeometry x="150" y="1050" width="250" height="424" as="geometry">
            <mxRectangle x="230" y="140" width="160" height="26" as="alternateBounds" />
          </mxGeometry>
        </mxCell>
        <mxCell id="CR6IL81RlcoV7Cm8-zXN-106" value="sysFileId(文件业务id)" style="text;align=left;verticalAlign=top;spacingLeft=4;spacingRight=4;overflow=hidden;rotatable=0;points=[[0,0.5],[1,0.5]];portConstraint=eastwest;" vertex="1" parent="CR6IL81RlcoV7Cm8-zXN-105">
          <mxGeometry y="26" width="250" height="26" as="geometry" />
        </mxCell>
        <mxCell id="CR6IL81RlcoV7Cm8-zXN-107" value="sysTaskId(任务Id)" style="text;strokeColor=none;fillColor=none;align=left;verticalAlign=top;spacingLeft=4;spacingRight=4;overflow=hidden;rotatable=0;points=[[0,0.5],[1,0.5]];portConstraint=eastwest;whiteSpace=wrap;html=1;" vertex="1" parent="CR6IL81RlcoV7Cm8-zXN-105">
          <mxGeometry y="52" width="250" height="26" as="geometry" />
        </mxCell>
        <mxCell id="CR6IL81RlcoV7Cm8-zXN-108" value="fileName（文件名称）" style="text;strokeColor=none;fillColor=none;align=left;verticalAlign=top;spacingLeft=4;spacingRight=4;overflow=hidden;rotatable=0;points=[[0,0.5],[1,0.5]];portConstraint=eastwest;whiteSpace=wrap;html=1;" vertex="1" parent="CR6IL81RlcoV7Cm8-zXN-105">
          <mxGeometry y="78" width="250" height="26" as="geometry" />
        </mxCell>
        <mxCell id="CR6IL81RlcoV7Cm8-zXN-109" value="fileSuffix（文件后缀）" style="text;strokeColor=none;fillColor=none;align=left;verticalAlign=top;spacingLeft=4;spacingRight=4;overflow=hidden;rotatable=0;points=[[0,0.5],[1,0.5]];portConstraint=eastwest;whiteSpace=wrap;html=1;" vertex="1" parent="CR6IL81RlcoV7Cm8-zXN-105">
          <mxGeometry y="104" width="250" height="26" as="geometry" />
        </mxCell>
        <mxCell id="CR6IL81RlcoV7Cm8-zXN-110" value="FileSource(备份工具、归档工具、数据管家)" style="text;strokeColor=none;fillColor=none;align=left;verticalAlign=top;spacingLeft=4;spacingRight=4;overflow=hidden;rotatable=0;points=[[0,0.5],[1,0.5]];portConstraint=eastwest;whiteSpace=wrap;html=1;" vertex="1" parent="CR6IL81RlcoV7Cm8-zXN-105">
          <mxGeometry y="130" width="250" height="46" as="geometry" />
        </mxCell>
        <mxCell id="CR6IL81RlcoV7Cm8-zXN-111" value="fileDownloadPath(下载目录)" style="text;strokeColor=none;fillColor=none;align=left;verticalAlign=top;spacingLeft=4;spacingRight=4;overflow=hidden;rotatable=0;points=[[0,0.5],[1,0.5]];portConstraint=eastwest;whiteSpace=wrap;html=1;" vertex="1" parent="CR6IL81RlcoV7Cm8-zXN-105">
          <mxGeometry y="176" width="250" height="26" as="geometry" />
        </mxCell>
        <mxCell id="CR6IL81RlcoV7Cm8-zXN-112" value="fileHash（文件Hash）" style="text;strokeColor=none;fillColor=none;align=left;verticalAlign=top;spacingLeft=4;spacingRight=4;overflow=hidden;rotatable=0;points=[[0,0.5],[1,0.5]];portConstraint=eastwest;whiteSpace=wrap;html=1;" vertex="1" parent="CR6IL81RlcoV7Cm8-zXN-105">
          <mxGeometry y="202" width="250" height="26" as="geometry" />
        </mxCell>
        <mxCell id="CR6IL81RlcoV7Cm8-zXN-113" value="fileUrl（文件Url）" style="text;align=left;verticalAlign=top;spacingLeft=4;spacingRight=4;overflow=hidden;rotatable=0;points=[[0,0.5],[1,0.5]];portConstraint=eastwest;rounded=0;shadow=0;html=0;" vertex="1" parent="CR6IL81RlcoV7Cm8-zXN-105">
          <mxGeometry y="228" width="250" height="26" as="geometry" />
        </mxCell>
        <mxCell id="CR6IL81RlcoV7Cm8-zXN-116" value="fileCreateTime（文件创建时间）" style="text;strokeColor=none;fillColor=none;align=left;verticalAlign=top;spacingLeft=4;spacingRight=4;overflow=hidden;rotatable=0;points=[[0,0.5],[1,0.5]];portConstraint=eastwest;whiteSpace=wrap;html=1;" vertex="1" parent="CR6IL81RlcoV7Cm8-zXN-105">
          <mxGeometry y="254" width="250" height="26" as="geometry" />
        </mxCell>
        <mxCell id="CR6IL81RlcoV7Cm8-zXN-117" value="fileLastWriteTime（文件最后修改时间）" style="text;strokeColor=none;fillColor=none;align=left;verticalAlign=top;spacingLeft=4;spacingRight=4;overflow=hidden;rotatable=0;points=[[0,0.5],[1,0.5]];portConstraint=eastwest;whiteSpace=wrap;html=1;" vertex="1" parent="CR6IL81RlcoV7Cm8-zXN-105">
          <mxGeometry y="280" width="250" height="26" as="geometry" />
        </mxCell>
        <mxCell id="CR6IL81RlcoV7Cm8-zXN-118" value="fileSize（文件大小）" style="text;strokeColor=none;fillColor=none;align=left;verticalAlign=top;spacingLeft=4;spacingRight=4;overflow=hidden;rotatable=0;points=[[0,0.5],[1,0.5]];portConstraint=eastwest;whiteSpace=wrap;html=1;" vertex="1" parent="CR6IL81RlcoV7Cm8-zXN-105">
          <mxGeometry y="306" width="250" height="26" as="geometry" />
        </mxCell>
        <mxCell id="CR6IL81RlcoV7Cm8-zXN-119" value="SendUI（是否通知UI）" style="text;strokeColor=none;fillColor=none;align=left;verticalAlign=top;spacingLeft=4;spacingRight=4;overflow=hidden;rotatable=0;points=[[0,0.5],[1,0.5]];portConstraint=eastwest;whiteSpace=wrap;html=1;" vertex="1" parent="CR6IL81RlcoV7Cm8-zXN-105">
          <mxGeometry y="332" width="250" height="26" as="geometry" />
        </mxCell>
        <mxCell id="CR6IL81RlcoV7Cm8-zXN-114" value="" style="line;html=1;strokeWidth=1;align=left;verticalAlign=middle;spacingTop=-1;spacingLeft=3;spacingRight=3;rotatable=0;labelPosition=right;points=[];portConstraint=eastwest;" vertex="1" parent="CR6IL81RlcoV7Cm8-zXN-105">
          <mxGeometry y="358" width="250" height="8" as="geometry" />
        </mxCell>
        <mxCell id="CR6IL81RlcoV7Cm8-zXN-115" value="获取下载文件列表：GetDownloadFile（）" style="text;align=left;verticalAlign=top;spacingLeft=4;spacingRight=4;overflow=hidden;rotatable=0;points=[[0,0.5],[1,0.5]];portConstraint=eastwest;" vertex="1" parent="CR6IL81RlcoV7Cm8-zXN-105">
          <mxGeometry y="366" width="250" height="58" as="geometry" />
        </mxCell>
        <mxCell id="CR6IL81RlcoV7Cm8-zXN-120" value="UploadDownloadFileInfo" style="swimlane;fontStyle=2;align=center;verticalAlign=top;childLayout=stackLayout;horizontal=1;startSize=26;horizontalStack=0;resizeParent=1;resizeLast=0;collapsible=1;marginBottom=0;rounded=0;shadow=0;strokeWidth=1;" vertex="1" parent="WIyWlLk6GJQsqaUBKTNV-1">
          <mxGeometry x="510" y="1050" width="250" height="330" as="geometry">
            <mxRectangle x="230" y="140" width="160" height="26" as="alternateBounds" />
          </mxGeometry>
        </mxCell>
        <mxCell id="CR6IL81RlcoV7Cm8-zXN-121" value="sysFileId(文件业务id)" style="text;align=left;verticalAlign=top;spacingLeft=4;spacingRight=4;overflow=hidden;rotatable=0;points=[[0,0.5],[1,0.5]];portConstraint=eastwest;" vertex="1" parent="CR6IL81RlcoV7Cm8-zXN-120">
          <mxGeometry y="26" width="250" height="26" as="geometry" />
        </mxCell>
        <mxCell id="CR6IL81RlcoV7Cm8-zXN-122" value="sysTaskId(任务Id)" style="text;strokeColor=none;fillColor=none;align=left;verticalAlign=top;spacingLeft=4;spacingRight=4;overflow=hidden;rotatable=0;points=[[0,0.5],[1,0.5]];portConstraint=eastwest;whiteSpace=wrap;html=1;" vertex="1" parent="CR6IL81RlcoV7Cm8-zXN-120">
          <mxGeometry y="52" width="250" height="26" as="geometry" />
        </mxCell>
        <mxCell id="CR6IL81RlcoV7Cm8-zXN-123" value="fileName（文件名称）" style="text;strokeColor=none;fillColor=none;align=left;verticalAlign=top;spacingLeft=4;spacingRight=4;overflow=hidden;rotatable=0;points=[[0,0.5],[1,0.5]];portConstraint=eastwest;whiteSpace=wrap;html=1;" vertex="1" parent="CR6IL81RlcoV7Cm8-zXN-120">
          <mxGeometry y="78" width="250" height="26" as="geometry" />
        </mxCell>
        <mxCell id="CR6IL81RlcoV7Cm8-zXN-124" value="fileSuffix（文件后缀）" style="text;strokeColor=none;fillColor=none;align=left;verticalAlign=top;spacingLeft=4;spacingRight=4;overflow=hidden;rotatable=0;points=[[0,0.5],[1,0.5]];portConstraint=eastwest;whiteSpace=wrap;html=1;" vertex="1" parent="CR6IL81RlcoV7Cm8-zXN-120">
          <mxGeometry y="104" width="250" height="26" as="geometry" />
        </mxCell>
        <mxCell id="CR6IL81RlcoV7Cm8-zXN-125" value="FileSource(备份工具、归档工具、数据管家)" style="text;strokeColor=none;fillColor=none;align=left;verticalAlign=top;spacingLeft=4;spacingRight=4;overflow=hidden;rotatable=0;points=[[0,0.5],[1,0.5]];portConstraint=eastwest;whiteSpace=wrap;html=1;" vertex="1" parent="CR6IL81RlcoV7Cm8-zXN-120">
          <mxGeometry y="130" width="250" height="30" as="geometry" />
        </mxCell>
        <mxCell id="CR6IL81RlcoV7Cm8-zXN-126" value="status" style="text;strokeColor=none;fillColor=none;align=left;verticalAlign=top;spacingLeft=4;spacingRight=4;overflow=hidden;rotatable=0;points=[[0,0.5],[1,0.5]];portConstraint=eastwest;whiteSpace=wrap;html=1;" vertex="1" parent="CR6IL81RlcoV7Cm8-zXN-120">
          <mxGeometry y="160" width="250" height="26" as="geometry" />
        </mxCell>
        <mxCell id="CR6IL81RlcoV7Cm8-zXN-127" value="fileDownloadStartTime" style="text;strokeColor=none;fillColor=none;align=left;verticalAlign=top;spacingLeft=4;spacingRight=4;overflow=hidden;rotatable=0;points=[[0,0.5],[1,0.5]];portConstraint=eastwest;whiteSpace=wrap;html=1;" vertex="1" parent="CR6IL81RlcoV7Cm8-zXN-120">
          <mxGeometry y="186" width="250" height="26" as="geometry" />
        </mxCell>
        <mxCell id="CR6IL81RlcoV7Cm8-zXN-128" value="fileDownloadEndTime" style="text;align=left;verticalAlign=top;spacingLeft=4;spacingRight=4;overflow=hidden;rotatable=0;points=[[0,0.5],[1,0.5]];portConstraint=eastwest;rounded=0;shadow=0;html=0;" vertex="1" parent="CR6IL81RlcoV7Cm8-zXN-120">
          <mxGeometry y="212" width="250" height="26" as="geometry" />
        </mxCell>
        <mxCell id="CR6IL81RlcoV7Cm8-zXN-129" value="fileDownloadNum" style="text;strokeColor=none;fillColor=none;align=left;verticalAlign=top;spacingLeft=4;spacingRight=4;overflow=hidden;rotatable=0;points=[[0,0.5],[1,0.5]];portConstraint=eastwest;whiteSpace=wrap;html=1;" vertex="1" parent="CR6IL81RlcoV7Cm8-zXN-120">
          <mxGeometry y="238" width="250" height="26" as="geometry" />
        </mxCell>
        <mxCell id="CR6IL81RlcoV7Cm8-zXN-133" value="" style="line;html=1;strokeWidth=1;align=left;verticalAlign=middle;spacingTop=-1;spacingLeft=3;spacingRight=3;rotatable=0;labelPosition=right;points=[];portConstraint=eastwest;" vertex="1" parent="CR6IL81RlcoV7Cm8-zXN-120">
          <mxGeometry y="264" width="250" height="8" as="geometry" />
        </mxCell>
        <mxCell id="CR6IL81RlcoV7Cm8-zXN-134" value="获取下载文件列表：updateDownloadFile（）" style="text;align=left;verticalAlign=top;spacingLeft=4;spacingRight=4;overflow=hidden;rotatable=0;points=[[0,0.5],[1,0.5]];portConstraint=eastwest;" vertex="1" parent="CR6IL81RlcoV7Cm8-zXN-120">
          <mxGeometry y="272" width="250" height="58" as="geometry" />
        </mxCell>
        <mxCell id="CR6IL81RlcoV7Cm8-zXN-136" value="文件下载" style="text;html=1;strokeColor=none;fillColor=none;align=center;verticalAlign=middle;whiteSpace=wrap;rounded=0;" vertex="1" parent="WIyWlLk6GJQsqaUBKTNV-1">
          <mxGeometry x="420" y="1010" width="60" height="30" as="geometry" />
        </mxCell>
      </root>
    </mxGraphModel>
  </diagram>
</mxfile>
